<mxfile host="app.diagrams.net" agent="Mozilla/5.0 (Windows NT 10.0; Win64; x64) AppleWebKit/537.36 (KHTML, like Gecko) Chrome/127.0.0.0 Safari/537.36 Edg/127.0.0.0" version="24.7.7">
  <diagram name="PÃ¡gina-1" id="Fhi5atJFnrz4Th16ZURn">
    <mxGraphModel dx="1188" dy="631" grid="1" gridSize="10" guides="1" tooltips="1" connect="1" arrows="1" fold="1" page="1" pageScale="1" pageWidth="1600" pageHeight="900" math="0" shadow="0">
      <root>
        <mxCell id="0" />
        <mxCell id="1" parent="0" />
        <mxCell id="LOQn40MInuUHuY1EKUPV-6" value="" style="edgeStyle=orthogonalEdgeStyle;rounded=0;orthogonalLoop=1;jettySize=auto;html=1;" edge="1" parent="1" source="LOQn40MInuUHuY1EKUPV-2" target="LOQn40MInuUHuY1EKUPV-3">
          <mxGeometry relative="1" as="geometry" />
        </mxCell>
        <mxCell id="LOQn40MInuUHuY1EKUPV-32" value="!ENTER_BUTTON" style="edgeLabel;html=1;align=center;verticalAlign=middle;resizable=0;points=[];" vertex="1" connectable="0" parent="LOQn40MInuUHuY1EKUPV-6">
          <mxGeometry x="-0.025" relative="1" as="geometry">
            <mxPoint y="-10" as="offset" />
          </mxGeometry>
        </mxCell>
        <mxCell id="LOQn40MInuUHuY1EKUPV-2" value="Set current time" style="ellipse;whiteSpace=wrap;html=1;" vertex="1" parent="1">
          <mxGeometry x="400" y="320" width="120" height="80" as="geometry" />
        </mxCell>
        <mxCell id="LOQn40MInuUHuY1EKUPV-5" value="" style="edgeStyle=orthogonalEdgeStyle;rounded=0;orthogonalLoop=1;jettySize=auto;html=1;" edge="1" parent="1" source="LOQn40MInuUHuY1EKUPV-3" target="LOQn40MInuUHuY1EKUPV-4">
          <mxGeometry relative="1" as="geometry" />
        </mxCell>
        <mxCell id="LOQn40MInuUHuY1EKUPV-34" value="!ENTER_BUTTON" style="edgeLabel;html=1;align=center;verticalAlign=middle;resizable=0;points=[];" vertex="1" connectable="0" parent="LOQn40MInuUHuY1EKUPV-5">
          <mxGeometry x="-0.125" y="-4" relative="1" as="geometry">
            <mxPoint as="offset" />
          </mxGeometry>
        </mxCell>
        <mxCell id="LOQn40MInuUHuY1EKUPV-3" value="Set trigger time" style="ellipse;whiteSpace=wrap;html=1;" vertex="1" parent="1">
          <mxGeometry x="641" y="320" width="120" height="80" as="geometry" />
        </mxCell>
        <mxCell id="LOQn40MInuUHuY1EKUPV-24" value="" style="edgeStyle=orthogonalEdgeStyle;rounded=0;orthogonalLoop=1;jettySize=auto;html=1;" edge="1" parent="1" source="LOQn40MInuUHuY1EKUPV-4" target="LOQn40MInuUHuY1EKUPV-23">
          <mxGeometry relative="1" as="geometry" />
        </mxCell>
        <mxCell id="LOQn40MInuUHuY1EKUPV-4" value="Set active duration time" style="ellipse;whiteSpace=wrap;html=1;" vertex="1" parent="1">
          <mxGeometry x="641" y="480" width="120" height="80" as="geometry" />
        </mxCell>
        <mxCell id="LOQn40MInuUHuY1EKUPV-7" value="" style="triangle;whiteSpace=wrap;html=1;" vertex="1" parent="1">
          <mxGeometry x="370" y="340" width="30" height="40" as="geometry" />
        </mxCell>
        <mxCell id="LOQn40MInuUHuY1EKUPV-37" value="" style="edgeStyle=orthogonalEdgeStyle;rounded=0;orthogonalLoop=1;jettySize=auto;html=1;" edge="1" parent="1" source="LOQn40MInuUHuY1EKUPV-8" target="LOQn40MInuUHuY1EKUPV-3">
          <mxGeometry relative="1" as="geometry" />
        </mxCell>
        <mxCell id="LOQn40MInuUHuY1EKUPV-38" value="!ENTER_BUTTON" style="edgeLabel;html=1;align=center;verticalAlign=middle;resizable=0;points=[];" vertex="1" connectable="0" parent="LOQn40MInuUHuY1EKUPV-37">
          <mxGeometry x="0.025" y="-1" relative="1" as="geometry">
            <mxPoint y="-9" as="offset" />
          </mxGeometry>
        </mxCell>
        <mxCell id="LOQn40MInuUHuY1EKUPV-47" style="edgeStyle=orthogonalEdgeStyle;rounded=0;orthogonalLoop=1;jettySize=auto;html=1;exitX=1;exitY=0;exitDx=0;exitDy=0;entryX=0;entryY=0;entryDx=0;entryDy=0;" edge="1" parent="1" source="LOQn40MInuUHuY1EKUPV-8" target="LOQn40MInuUHuY1EKUPV-22">
          <mxGeometry relative="1" as="geometry" />
        </mxCell>
        <mxCell id="LOQn40MInuUHuY1EKUPV-52" value="current_time == trigger_time" style="edgeLabel;html=1;align=center;verticalAlign=middle;resizable=0;points=[];" vertex="1" connectable="0" parent="LOQn40MInuUHuY1EKUPV-47">
          <mxGeometry x="-0.058" relative="1" as="geometry">
            <mxPoint x="6" y="-12" as="offset" />
          </mxGeometry>
        </mxCell>
        <mxCell id="LOQn40MInuUHuY1EKUPV-8" value="Home screen (standby)" style="ellipse;whiteSpace=wrap;html=1;" vertex="1" parent="1">
          <mxGeometry x="881" y="320" width="120" height="80" as="geometry" />
        </mxCell>
        <mxCell id="LOQn40MInuUHuY1EKUPV-48" style="edgeStyle=orthogonalEdgeStyle;rounded=0;orthogonalLoop=1;jettySize=auto;html=1;exitX=0;exitY=1;exitDx=0;exitDy=0;entryX=1;entryY=1;entryDx=0;entryDy=0;" edge="1" parent="1" source="LOQn40MInuUHuY1EKUPV-22" target="LOQn40MInuUHuY1EKUPV-8">
          <mxGeometry relative="1" as="geometry" />
        </mxCell>
        <mxCell id="LOQn40MInuUHuY1EKUPV-51" value="elapsed_active_time &amp;gt;= active_time_duration" style="edgeLabel;html=1;align=center;verticalAlign=middle;resizable=0;points=[];" vertex="1" connectable="0" parent="LOQn40MInuUHuY1EKUPV-48">
          <mxGeometry x="0.1354" relative="1" as="geometry">
            <mxPoint x="23" y="22" as="offset" />
          </mxGeometry>
        </mxCell>
        <mxCell id="LOQn40MInuUHuY1EKUPV-22" value="status = ACTIVE" style="ellipse;whiteSpace=wrap;html=1;" vertex="1" parent="1">
          <mxGeometry x="1121" y="320" width="120" height="80" as="geometry" />
        </mxCell>
        <mxCell id="LOQn40MInuUHuY1EKUPV-36" value="" style="edgeStyle=orthogonalEdgeStyle;rounded=0;orthogonalLoop=1;jettySize=auto;html=1;" edge="1" parent="1" source="LOQn40MInuUHuY1EKUPV-23" target="LOQn40MInuUHuY1EKUPV-8">
          <mxGeometry relative="1" as="geometry" />
        </mxCell>
        <mxCell id="LOQn40MInuUHuY1EKUPV-23" value="status = INACTIVE" style="ellipse;whiteSpace=wrap;html=1;" vertex="1" parent="1">
          <mxGeometry x="881" y="480" width="120" height="80" as="geometry" />
        </mxCell>
        <mxCell id="LOQn40MInuUHuY1EKUPV-53" style="edgeStyle=orthogonalEdgeStyle;rounded=0;orthogonalLoop=1;jettySize=auto;html=1;exitX=0.5;exitY=0;exitDx=0;exitDy=0;entryX=0;entryY=0;entryDx=0;entryDy=0;curved=1;" edge="1" parent="1" source="LOQn40MInuUHuY1EKUPV-8" target="LOQn40MInuUHuY1EKUPV-8">
          <mxGeometry relative="1" as="geometry">
            <Array as="points">
              <mxPoint x="941" y="300" />
              <mxPoint x="899" y="300" />
            </Array>
          </mxGeometry>
        </mxCell>
        <mxCell id="LOQn40MInuUHuY1EKUPV-54" value="current_time != trigger_time" style="edgeLabel;html=1;align=center;verticalAlign=middle;resizable=0;points=[];" vertex="1" connectable="0" parent="LOQn40MInuUHuY1EKUPV-53">
          <mxGeometry x="-0.1194" relative="1" as="geometry">
            <mxPoint y="-10" as="offset" />
          </mxGeometry>
        </mxCell>
        <mxCell id="LOQn40MInuUHuY1EKUPV-64" value="" style="shape=image;verticalLabelPosition=bottom;labelBackgroundColor=default;verticalAlign=top;aspect=fixed;imageAspect=0;image=data:image/png,iVBORw0KGgoAAAANSUhEUgAABVoAAAFMCAIAAAC1ZZAlAAAOGElEQVR4nO3cy5KjMBYE0NaEI/j/z2WlWXg1MZaMjUBW5TnrCygN9SBb1f/+AQAAAAAAAAAAAAAAAAAAAAAAAAAAAAAAAAAAAAAAAAAAAAAAAAAAAAAAAAAAAAAAAAAAAAAAAAAAAAAAAAAAAAAAAAAAAAAAAAAAAAAAAMBaytUXqLVefQkAAAD4Y0q59oX9qrNrAQAAAOC8i3qB/1xxUl0AAAAADHHRK/bgjkERAAAAAFcYu01g5O4AXQAAAABcZOxL97A6QBcAAAAAlxr46j2mDtAFAAAAwA1GvYBf8l8JAgAAAL9sQB1gawAAAADcZshr+Nk6QBcAAAAANzv/Mu6PBQAAACCOOgAAAADinKoD/KUAAAAATHHyldzuAAAAAIijDgAAAIA46gAAAACIow4AAACAOOoAAAAAiKMOAAAAgDjqAAAAAIijDgAAAIA46gAAAACIow4AAACAOOoAAAAAiKMOAAAAgDjqAAAAAIijDgAAAIA46gAAAACIow4AAACAOOoAAAAAiPOYvYDX9n1/O7Nt279//0opbydrrdMn+47nXWWy74r7+zfyrjLZt0oKeVuTfaukkLc12bdKCnlbk31+/t65tl/O6/62Jud+Mn2rPKXytiZ/k90BAAAAEEcdAAAAAHHUAQAAABBHHQAAAABx1AEAAAAQRx0AAAAAcdQBAAAAEEcdAAAAAHHUAQAAABBHHQAAAABx1AEAAAAQp5w5uNY6ah0AAADAR0r5/qXe7gAAAACI85i9gNeONBzPvQn7vr+d3LZt+mTfKinuz7vKk9C3yl2TtzXZt0oKeVuTfaukkLc12bdKCj9/W5N9q9w197c12bfKXZO3Ndm3SopReWexOwAAAADiqAMAAAAgjjoAAAAA4qgDAAAAII46AAAAAOKoAwAAACCOOgAAAADiqAMAAAAgjjoAAAAA4qgDAAAAII46AAAAAOKUMwfXWketAwAAAPhIKd+/1NsdAAAAAHEesxfw2pGG47k3Yd/3t5Pbtk2f7Dt+nuOfzBWTo/KukuL++7vKZJ/n+fwVr5g8vs6+K/Km3d9fzuvr9/wV/0ZeP39/c7LP/W2d52/knZvCz6PW5Ki8s9gdAAAAAHHUAQAAABBHHQAAAABx1AEAAAAQRx0AAAAAcdQBAAAAEEcdAAAAAHHUAQAAABBHHQAAAABx1AEAAAAQRx0AAAAAccqZg2uto9YBAAAAfKSU71/q7Q4AAACAOI/ZC3ht3/e3M9u2/TvWhTx3MVwxeXydfVdc8YrJ4+vsu+KKcz+Zvrlruz/vKnctLe+or9+530vlbU3en9fz3Jr85bx+/t65tl/O6/62Jud+Mn1XrG3uOftWeUpH5Z3F7gAAAACIow4AAACAOOoAAAAAiKMOAAAAgDjqAAAAAIijDgAAAIA46gAAAACIow4AAACAOOoAAAAAiKMOAAAAgDjqAAAAAIhTzhxcax21DgAAAOAjpXz/Um93AAAAAMR5zF7Aa/u+v53Ztm365JEm5sgeiuPnWWWy74pPeO6T0LfK8zwq7yp3LS3v/d+v3N/za/vlvKtM9q1yf/38bU32rfJVeX9e97c1OfeT6btibXPP2bfKT5lReWexOwAAAADiqAMAAAAgjjoAAAAA4qgDAAAAII46AAAAAOKoAwAAACCOOgAAAADiqAMAAAAgjjoAAAAA4qgDAAAAII46AAAAAOKUMwfXWketAwAAAPhIKd+/1NsdAAAAAHEesxfw2r7vb2e2bZs+eaSJObKH4vh5Vvlk+q74hH/5/q5y10bd31We57/x9Xv86n8jr+f5/GSfvP/vF/Le//Nole9sfas8pX6/al29b+7afL9qTfp9ozX5m+wOAAAAgDjqAAAAAIijDgAAAIA46gAAAACIow4AAACAOOoAAAAAiKMOAAAAgDjqAAAAAIijDgAAAIA46gAAAACIow4AAACAOOXMwbXWUesAAAAAPlLK9y/1dgcAAABAnMfsBbx2pOF47k2YO7nv+9vJbdvezhw/T1reuZ/ML+edO9nneW6dZ26K4+fsu2Jtv/w8p+VN+/pd5f6O+vr187d1nlUm+9zf1nl8v2pd8W98v/ob93cWuwMAAAAgjjoAAAAA4qgDAAAAII46AAAAAOKoAwAAACCOOgAAAADiqAMAAAAgjjoAAAAA4qgDAAAAII46AAAAAOKoAwAAACBOOXNwrXXUOgAAAICPlPL9S73dAQAAABDnMXsBr+37/nZm27aFJvtWSSFva7JvlRTytib7Vkkhb2uyb5UU8rYm+1ZJIW9rsm+VFPK2JvtWSSFva7JvlRSj8s5idwAAAADEUQcAAABAHHUAAAAAxFEHAAAAQBx1AAAAAMRRBwAAAEAcdQAAAADEUQcAAABAHHUAAAAAxFEHAAAAQBx1AAAAAMQpZw6utY5aBwAAAPCRUr5/qbc7AAAAAOKoAwAAACCOOgAAAADiqAMAAAAgjjoAAAAA4qgDAAAAII46AAAAAOKoAwAAACCOOgAAAADiPGYv4LV939/ObNu20GTfKinkbU32rZLi/ryllLeTtdaLJuVtrbNvlafU/W2ts0/e1nlWmexzf1vnScu7ymTfKinkbU32rZJiVN5Z7A4AAACAOOoAAAAAiKMOAAAAgDjqAAAAAIijDgAAAIA46gAAAACIow4AAACAOOoAAAAAiKMOAAAAgDjqAAAAAIijDgAAAIA45czBtdZR6wAAAAA+Usr3L/V2BwAAAECcx+wFvLbv+9uZbdsWmuxbJYW8rcm+VVKMynukoXzuLZqb4vg6+9LyXnHFuZ9hX9r9Tcvreb5zbZ7n1uT9z/Mqk32rpJC3Ndm3SopReWexOwAAAADiqAMAAAAgjjoAAAAA4qgDAAAAII46AAAAAOKoAwAAACCOOgAAAADiqAMAAAAgjjoAAAAA4qgDAAAAII46AAAAAOKUMwfXWketAwAAAPhIKd+/1NsdAAAAAHEesxfw2r7vb2e2bVtosm+VFPK2JvtWSTEq75GG8rm36Iq1Hb/68cm+tLxz1+Z5bl3d89ya7PM837k2z3Pr6vc/z6tM9q2SQt7WZN8qKUblncXuAAAAAIijDgAAAIA46gAAAACIow4AAACAOOoAAAAAiKMOAAAAgDjqAAAAAIijDgAAAIA46gAAAACIow4AAACAOOoAAAAAiFPOHFxrHbUOAAAA4COlfP9Sb3cAAAAAxHnMXsBr+76/ndm2baHJvlVSyNua7Fslxai8RxrK596i41ece86+tLyrPKWe59Y5+9LyrvKUep5b5+xLy7vKU+r3q9Zk3yop5G1N/ia7AwAAACCOOgAAAADiqAMAAAAgjjoAAAAA4qgDAAAAII46AAAAAOKoAwAAACCOOgAAAADiqAMAAAAgjjoAAAAA4qgDAAAAIE45c3CtddQ6AAAAgI+U8v1Lvd0BAAAAEOcxewGv7fv+dmbbtoUm+1ZJIW9rsm+VFKPyHmkon3uLjk9ekeL41fvS8l5xxbmfTN8qKTzPrav3eZ5ba/sb9zct7yq/Rfj9qjXZt0oKeVuTv8nuAAAAAIijDgAAAIA46gAAAACIow4AAACAOOoAAAAAiKMOAAAAgDjqAAAAAIijDgAAAIA46gAAAACIow4AAACAOOoAAAAAiFPOHFxrHbUOAAAA4COlfP9Sb3cAAAAAxHnMXsBr+76/ndm2baHJvlVSyNua7Fslxai8RxrK596iuSmOr7MvLe8VV5z7Gfal3d+0vJ7nO9fmeW5N3v88rzLZt0oKeVuTfaukGJV3FrsDAAAAII46AAAAAOKoAwAAACCOOgAAAADiqAMAAAAgjjoAAAAA4qgDAAAAII46AAAAAOKoAwAAACCOOgAAAADiqAMAAAAgTjlzcK111DoAAACAj5Ty/Uu93QEAAAAQ5zF7Aa/t+/52Ztu2hSb7Vkkhb2uyb5UU9+c90mU+dyFdMSlva519qzyl7m9rnX3yts6zymSf+9s6T1reVSb7Vkkhb2uyb5UUo/LOYncAAAAAxFEHAAAAQBx1AAAAAMRRBwAAAEAcdQAAAADEUQcAAABAHHUAAAAAxFEHAAAAQBx1AAAAAMRRBwAAAEAcdQAAAADEKWcOrrWOWgcAAADwkVK+f6m3OwAAAADiPGYv4LV939/ObNu20GTfKinkbU32rZJiVN4jDeVzb9Eqk32r3DXPc2uyb5UU8rYm+1ZJIW9rsm+VFPK2JvtWSSFva7JvlRSj8s5idwAAAADEUQcAAABAHHUAAAAAxFEHAAAAQBx1AAAAAMRRBwAAAEAcdQAAAADEUQcAAABAHHUAAAAAxFEHAAAAQBx1AAAAAMQpZw6utY5aBwAAAPCRUr5/qbc7AAAAAOKoAwAAACCOOgAAAADiqAMAAAAgjjoAAAAA4qgDAAAAII46AAAAAOKoAwAAACCOOgAAAADiqAMAAAAgjjoAAAAA4qgDAAAAII46AAAAAOKoAwAAACCOOgAAAADiqAMAAAAgjjoAAAAA4qgDAAAAII46AAAAAOKcqgNKKaPWAQAAABx38pXc7gAAAACIow4AAACAOGfrAH8vAAAAADc7/zI+YHeARgAAAABuM+Q13B8LAAAAQJwxdYANAgAAAHCDUS/gw3YHaAQAAADgUgNfvUf+sYBGAAAAAC4y9qX7khf4WusVpwUAAIBAV/zr+yX/laBtAgAAADDERa/Yl7+32ykAAAAAn/IP7QAAAAAAAAAAAAAAAAAAAAAAAAAAAAAAAAAAAAAAAAAAAAAAAAAAAAAAAAAAAAAAAAAAAAAAAAAAAAAAAAAAAAAAAAAAAAAAAAAAAAAAAADwv/4L9zJsNVhNzN8AAAAASUVORK5CYIIK;" vertex="1" parent="1">
          <mxGeometry x="377.47" y="230" width="165.06" height="40" as="geometry" />
        </mxCell>
        <mxCell id="LOQn40MInuUHuY1EKUPV-65" value="" style="shape=image;verticalLabelPosition=bottom;labelBackgroundColor=default;verticalAlign=top;aspect=fixed;imageAspect=0;image=data:image/png,iVBORw0KGgoAAAANSUhEUgAABVoAAAFMCAIAAAC1ZZAlAAAOFklEQVR4nO3cwZKjMBYEwNGGI/j/z+WkPfi0sZaMjbBQV+b5GVSGtpsa9fz7BwAAAAAAAAAAAAAAAAAAAAAAAAAAAAAAAAAAAAAAAAAAAAAAAAAAAAAAAAAAAAAAAAAAAAAAAAAAAAAAAAAAAAAAAAAAAAAAAAAAAAAAAABrKVefoNZ69SkAAADgjynl2gf2q46uBQAAAIDzLuoF/nPFQXUBAAAAMMRFj9iDOwZFAAAAAFxh7DaBkbsDdAEAAABwkbEP3cPqAF0AAAAAXGrgo/eYOkAXAAAAAD8w6gH8kv9KEAAAALizAXWArQEAAADwM0Mew8/WAboAAAAA+LHzD+P+WAAAAADiqAMAAAAgzqk6wF8KAAAAwBQnH8ntDgAAAIA46gAAAACIow4AAACAOOoAAAAAiKMOAAAAgDjqAAAAAIijDgAAAIA46gAAAACIow4AAACAOOoAAAAAiKMOAAAAgDjqAAAAAIijDgAAAIA46gAAAACIow4AAACAOOoAAAAAiKMOAAAAgDiP2Qt4bd/3tzPbtv3796+U8nay1jp9su943lUm+664vn8j7yqTfa7vL9f2N/LOvRP6Vrlq8rYm+1ZJIW9rsm+VFL5/W5N9vo/OnzHt+t457yx2BwAAAEAcdQAAAADEUQcAAABAHHUAAAAAxFEHAAAAQBx1AAAAAMRRBwAAAEAcdQAAAADEUQcAAABAHHUAAAAAxFEHAAAAQJxy5sW11lHrAAAAAD5SyvcP9XYHAAAAQJzH7AW8dqTheO5N2Pf97eS2bdMn+1ZJ8fu8q9wJfatcNde3Ndm3ylWTtzXZd8X9PHeyT97/d4e71M9va7JvlRR3/rz6G3lXmexbJYW8rcl7sjsAAAAA4qgDAAAAII46AAAAAOKoAwAAACCOOgAAAADiqAMAAAAgjjoAAAAA4qgDAAAAII46AAAAAOKoAwAAACCOOgAAAADilDMvrrWOWgcAAADwkVK+f6i3OwAAAADiPGYv4LUjDcdzb8K+728nt22bPtl3/DjH35krJkflXSXF76/vKpN9adf3irXd+ed3lRR3vr5XTB5fZ19aXt+/589457yrfKv6/m1N9q1yl975+l7xHv6N6/v7vLPYHQAAAABx1AEAAAAQRx0AAAAAcdQBAAAAEEcdAAAAAHHUAQAAABBHHQAAAABx1AEAAAAQRx0AAAAAcdQBAAAAEEcdAAAAAHHKmRfXWketAwAAAPhIKd8/1NsdAAAAAHEesxfw2r7vb2e2bft3rAt57mK4YvL4OvuuOOMVk8fX2XfFGee+M31z13bnvH/j+s79bLnzz+8qd0LfKnfpqOsrb+s4aXl9Xt1zsm+VT907/36V9n0095h9q9ylo/LOYncAAAAAxFEHAAAAQBx1AAAAAMRRBwAAAEAcdQAAAADEUQcAAABAHHUAAAAAxFEHAAAAQBx1AAAAAMRRBwAAAEAcdQAAAADEKWdeXGsdtQ4AAADgI6V8/1BvdwAAAADEecxewGv7vr+d2bZt+uSRJubIHorjx1llsu+Kd3jundC3yv38+7x/4/qukuLO9/Pc97DvihRpn893zrtKit/n9Xl1z8m+VT5173x97/x9dMXa5h6zb5VP3VF5Z7E7AAAAAOKoAwAAACCOOgAAAADiqAMAAAAgjjoAAAAA4qgDAAAAII46AAAAAOKoAwAAACCOOgAAAADiqAMAAAAgjjoAAAAA4pQzL661jloHAAAA8JFSvn+otzsAAAAA4jxmL+C1fd/fzmzbNn3ySBNzZA/F8eOs8s70XfEO3/n6rnLVXN/W2fv8/J4/49z3sG+Vq5b2eeXntzXZl5Z3lRS+f1tn70v7Plrl59fnc2vynuwOAAAAgDjqAAAAAIijDgAAAIA46gAAAACIow4AAACAOOoAAAAAiKMOAAAAgDjqAAAAAIijDgAAAIA46gAAAACIow4AAACAOOXMi2uto9YBAAAAfKSU7x/q7Q4AAACAOI/ZC3jtSMPx3Jswd3Lf97eT27a9nTl+nLS8c9+ZO+edO9mXdn2vOOPfuL5pn1fyttYm7/lJn1etyb5VUtw5753vZz+/5884957pS7u+s9gdAAAAAHHUAQAAABBHHQAAAABx1AEAAAAQRx0AAAAAcdQBAAAAEEcdAAAAAHHUAQAAABBHHQAAAABx1AEAAAAQRx0AAAAAccqZF9daR60DAAAA+Egp3z/U2x0AAAAAcR6zF/Davu9vZ7ZtW2iyb5UU8rYm+1ZJIW9rsm+VFPK2JvtWSSFva7JvlRTytib7Vkkhb2uyb5UU8rYm+1ZJMSrvLHYHAAAAQBx1AAAAAMRRBwAAAEAcdQAAAADEUQcAAABAHHUAAAAAxFEHAAAAQBx1AAAAAMRRBwAAAEAcdQAAAADEUQcAAABAnHLmxbXWUesAAAAAPlLK9w/1dgcAAABAHHUAAAAAxFEHAAAAQBx1AAAAAMRRBwAAAEAcdQAAAADEUQcAAABAHHUAAAAAxFEHAAAAQJzH7AW8tu/725lt2xaa7Fslhbytyb5VUvw+bynl7WSt9aJJeVvr7FvlLnV9W+vsk7d1nFUm+1zf1nHS8q4y2bdKCnlbk32rpBiVdxa7AwAAACCOOgAAAADiqAMAAAAgjjoAAAAA4qgDAAAAII46AAAAAOKoAwAAACCOOgAAAADiqAMAAAAgjjoAAAAA4qgDAAAAIE458+Ja66h1AAAAAB8p5fuHersDAAAAIM5j9gJe2/f97cy2bQtN9q2SQt7WZN8qKUblPdJQPvcWzU1xfJ19aXmvOOPc97Av7fqm5XU//3Jt7ufW5O/v51Um+1ZJIW9rsm+VFKPyzmJ3AAAAAMRRBwAAAEAcdQAAAADEUQcAAABAHHUAAAAAxFEHAAAAQBx1AAAAAMRRBwAAAEAcdQAAAADEUQcAAABAHHUAAAAAxClnXlxrHbUOAAAA4COlfP9Qb3cAAAAAxHnMXsBr+76/ndm2baHJvlVSyNua7Fslxai8RxrK596iK9Z2/OzHJ/vS8s5dm/u5dXb3c2uyz/38y7W5n1tn//39vMpk3yop5G1N9q2SYlTeWewOAAAAgDjqAAAAAIijDgAAAIA46gAAAACIow4AAACAOOoAAAAAiKMOAAAAgDjqAAAAAIijDgAAAIA46gAAAACIow4AAACAOOXMi2uto9YBAAAAfKSU7x/q7Q4AAACAOI/ZC3ht3/e3M9u2LTTZt0oKeVuTfaukGJX3SEP53Ft0/Ixzj9mXlneVu9T93DpmX1reVe5S93PrmH1peVe5S/1+1ZrsWyWFvK3Je7I7AAAAAOKoAwAAACCOOgAAAADiqAMAAAAgjjoAAAAA4qgDAAAAII46AAAAAOKoAwAAACCOOgAAAADiqAMAAAAgjjoAAAAA4pQzL661jloHAAAA8JFSvn+otzsAAAAA4jxmL+C1fd/fzmzbttBk3yop5G1N9q2SYlTeIw3lc2/R8ckrUhw/e19a3ivOOPed6Vslhfu5dfY+93NrbX/j+qblXeW3CL9ftSb7Vkkhb2vynuwOAAAAgDjqAAAAAIijDgAAAIA46gAAAACIow4AAACAOOoAAAAAiKMOAAAAgDjqAAAAAIijDgAAAIA46gAAAACIow4AAACAOOXMi2uto9YBAAAAfKSU7x/q7Q4AAACAOI/ZC3ht3/e3M9u2LTTZt0oKeVuTfaukGJX3SEP53Fs0N8Xxdfal5b3ijHPfw76065uW1/38y7W5n1uTv7+fV5nsWyWFvK3JvlVSjMo7i90BAAAAEEcdAAAAAHHUAQAAABBHHQAAAABx1AEAAAAQRx0AAAAAcdQBAAAAEEcdAAAAAHHUAQAAABBHHQAAAABx1AEAAAAQp5x5ca111DoAAACAj5Ty/UO93QEAAAAQ5zF7Aa/t+/52Ztu2hSb7Vkkhb2uyb5UUv897pMt87kK6YlLe1jr7VrlLXd/WOvvkbR1nlck+17d1nLS8q0z2rZJC3tZk3yopRuWdxe4AAAAAiKMOAAAAgDjqAAAAAIijDgAAAIA46gAAAACIow4AAACAOOoAAAAAiKMOAAAAgDjqAAAAAIijDgAAAIA46gAAAACIU868uNY6ah0AAADAR0r5/qHe7gAAAACI85i9gNf2fX87s23bQpN9q6SQtzXZt0qKUXmPNJTPvUWrTPatctXcz63JvlVSyNua7Fslhbytyb5VUsjbmuxbJYW8rcm+VVKMyjuL3QEAAAAQRx0AAAAAcdQBAAAAEEcdAAAAAHHUAQAAABBHHQAAAABx1AEAAAAQRx0AAAAAcdQBAAAAEEcdAAAAAHHUAQAAABCnnHlxrXXUOgAAAICPlPL9Q73dAQAAABBHHQAAAABx1AEAAAAQRx0AAAAAcdQBAAAAEEcdAAAAAHHUAQAAABBHHQAAAABx1AEAAAAQRx0AAAAAcdQBAAAAEEcdAAAAAHHUAQAAABBHHQAAAABx1AEAAAAQRx0AAAAAcdQBAAAAEEcdAAAAAHHUAQAAABDnVB1QShm1DgAAAOC4k4/kdgcAAABAHHUAAAAAxDlbB/h7AQAAAPix8w/jA3YHaAQAAADgZ4Y8hvtjAQAAAIgzpg6wQQAAAAB+YNQD+LDdARoBAAAAuNTAR++RfyygEQAAAICLjH3ovuQBvtZ6xWEBAAAg0BX/+n7JfyVomwAAAAAMcdEj9uXP7XYKAAAAwKf8QzsAAAAAAAAAAAAAAAAAAAAAAAAAAAAAAAAAAAAAAAAAAAAAAAAAAAAAAAAAAAAAAAAAAAAAAAAAAAAAAAAAAAAAAAAAAAAAAAAAAAAAAAAA/K//Ahq0bDVHkXJjAAAAAElFTkSuQmCCCg==;" vertex="1" parent="1">
          <mxGeometry x="618.47" y="230" width="165.06" height="40" as="geometry" />
        </mxCell>
        <mxCell id="LOQn40MInuUHuY1EKUPV-66" value="" style="shape=image;verticalLabelPosition=bottom;labelBackgroundColor=default;verticalAlign=top;aspect=fixed;imageAspect=0;image=data:image/png,iVBORw0KGgoAAAANSUhEUgAABVoAAAFMCAIAAAC1ZZAlAAAOfElEQVR4nO3cwY7rqBYF0MtTJP//53pED2r0pJg4MQSTvdb4OOYE7Fx2U/3vHwAAAAAAAAAAAAAAAAAAAAAAAAAAAAAAAAAAAAAAAAAAAAAAAAAAAAAAAAAAAAAAAAAAAAAAAAAAAAAAAAAAAAAAAAAAAAAAAAAAAAAAAACspYy+Qa119C0AAADgx5QydsM+6tOlAAAAAHDdoFzgfyM+VBYAAAAAXQzaYnfOGAQBAAAAMELfYwI9TwfIAgAAAGCQvpvubnGALAAAAACG6rj17hMHyAIAAADgC3ptwIf8rwQBAACAO+sQBzgaAAAAAF/TZRt+NQ6QBQAAAMCXXd+M+2MBAAAAiCMOAAAAgDiX4gB/KQAAAABTXNySOx0AAAAAccQBAAAAEEccAAAAAHHEAQAAABBHHAAAAABxxAEAAAAQRxwAAAAAccQBAAAAEEccAAAAAHHEAQAAABBHHAAAAABxxAEAAAAQRxwAAAAAccQBAAAAEEccAAAAAHHEAQAAABBHHAAAAABxHrMH8Ny+7y9rtm379+9fKeVlZa11UOX5cbad/5xVKttG3HHErN2537nfTNsqq7RXv3PfQiMq2+auUuv5emXbKl18v9+053fur6r1fFTZZn6/OTb9Xq9sW6WLXv3O4nQAAAAAxBEHAAAAQBxxAAAAAMQRBwAAAEAccQAAAADEEQcAAABAHHEAAAAAxBEHAAAAQBxxAAAAAMQRBwAAAEAccQAAAADEKVcurrX2GgcAAADwllI+39Q7HQAAAABxHrMH8NyZhOPvbMK+7y8rt20bVHl+nG1zuxhR2TbiG567Ztrmrr0R30zbKl3ceX5HfId3nt/feF+tUtm2She9+l1llXp+jyrbVpk183tU2bbKrOn3qLJtlS569TuL0wEAAAAQRxwAAAAAccQBAAAAEEccAAAAAHHEAQAAABBHHAAAAABxxAEAAAAQRxwAAAAAccQBAAAAEEccAAAAAHHEAQAAABCnXLm41tprHAAAAMBbSvl8U+90AAAAAMR5zB7Ac2cSjr+zCfu+v6zctm16ZdsqXdy537lrpm1uFyM+s23E2H5jfn9jPXs/f3Ns+r1e2Za2nke8de/8vpr7e/T9399Vukh7fs+Psy1tPa/y1u3V7yxOBwAAAEAccQAAAADEEQcAAABAHHEAAAAAxBEHAAAAQBxxAAAAAMQRBwAAAEAccQAAAADEEQcAAABAHHEAAAAAxBEHAAAAQJxy5eJaa69xAAAAAG8p5fNNvdMBAAAAEOcxewDPnUk4/s4m7Pv+snLbtumVbat0ced+566ZtrljG3H3tlVW6W/0+/35PX/HuZW/Mb9p6/nO/aat51X+Jda2yio9/223pc3vKl30mt9V+k17fnv1O4vTAQAAABBHHAAAAABxxAEAAAAQRxwAAAAAccQBAAAAEEccAAAAAHHEAQAAABBHHAAAAABxxAEAAAAQRxwAAAAAccQBAAAAEKdcubjW2mscAAAAwFtK+XxT73QAAAAAxHnMHsBzZxKOv7MJ+76/rNy2bXpl2ypd3LnfuWum7fzYVqlsGzFrd57fVZ7KXvO7yvv5++t5lcq2VbpI6/fO7+ffmF+/v0d3vPP8rtLFned37r/E2lZ5P/fqdxanAwAAACCOOAAAAADiiAMAAAAgjjgAAAAA4ogDAAAAII44AAAAAOKIAwAAACCOOAAAAADiiAMAAAAgjjgAAAAA4ogDAAAAIE65cnGttdc4AAAAgLeU8vmm3ukAAAAAiPOYPYDnziQcf2cT9n1/Wblt26DK8+Nsm9vFiMq2uXPxG/3O/WbaRoztzvOb9r5K63eVt+5vvK/0e1T5/fU890n3vjoaZ5v5PfqcuV2k/R6l9dvr92gWpwMAAAAgjjgAAAAA4ogDAAAAII44AAAAAOKIAwAAACCOOAAAAADiiAMAAAAgjjgAAAAA4ogDAAAAII44AAAAAOKIAwAAACBOuXJxrbXXOAAAAIC3lPL5pt7pAAAAAIjzmD2A5/Z9f1mzbdu/c1nI3ymGEZXnx9l2/nNWqWwzv0efM6IyrV/r+ahSv0fjbFtller3qLJt7ir9jfX8G/2ushLazO/R58ztotf8rrJK7/y+uvPv0SxOBwAAAEAccQAAAADEEQcAAABAHHEAAAAAxBEHAAAAQBxxAAAAAMQRBwAAAEAccQAAAADEEQcAAABAHHEAAAAAxBEHAAAAQJxy5eJaa69xAAAAAG8p5fNNvdMBAAAAEOcxewDP7fv+smbbtoUq21bpQr9HlW2rdKHfo8q2VbrQ71Fl2ypd6Peosm2VLvR7VNm2Shf6PapsW6UL/R5Vtq3SRa9+Z3E6AAAAAOKIAwAAACCOOAAAAADiiAMAAAAgjjgAAAAA4ogDAAAAII44AAAAAOKIAwAAACCOOAAAAADiiAMAAAAgjjgAAAAA4pQrF9dae40DAAAAeEspn2/qnQ4AAACAOOIAAAAAiCMOAAAAgDjiAAAAAIgjDgAAAIA44gAAAACIIw4AAACAOOIAAAAAiCMOAAAAgDiP2QN4rpTysqbWulBl277vL2u2bVuosu3858ydte/3O6IyrV/r+ahSv0fjbFtllZrfo3G2rTJr+j2qbFulizs/v7/R7yrfTNsqq1S/R5X35HQAAAAAxBEHAAAAQBxxAAAAAMQRBwAAAEAccQAAAADEEQcAAABAHHEAAAAAxBEHAAAAQBxxAAAAAMQRBwAAAEAccQAAAADEKVcurrX2GgcAAADwllI+39Q7HQAAAABxHrMH8Ny+7y9rtm17q/JMavJ33mHE3dtG3HFuZdvcuRixZtrmjm3Et922ShfW89E429L6XeWte+ffozs/v6vMmn6PKttW6eLOv7+/0e8qlW2rdKHfo8p7cjoAAAAA4ogDAAAAII44AAAAAOKIAwAAACCOOAAAAADiiAMAAAAgjjgAAAAA4ogDAAAAII44AAAAAOKIAwAAACCOOAAAAADilCsX11p7jQMAAAB4Symfb+qdDgAAAIA4j9kDeG7f95c127a9VXkmNfk77zDi7m0j7ji3sm3uXJy/+/nKtrmrdMRnts2dC+v56O691nNav6u8de/8e5T2/M59s7XN7UK/R5XfX8+/8fu7ylN55/fV3Hd+W9rzO4vTAQAAABBHHAAAAABxxAEAAAAQRxwAAAAAccQBAAAAEEccAAAAAHHEAQAAABBHHAAAAABxxAEAAAAQRxwAAAAAccQBAAAAEKdcubjW2mscAAAAwFtK+XxT73QAAAAAxHnMHsBz+76/rNm27a3KM6nJ33mHEXdvG3HHuZVtI+Zi7me2zV17I+7etsoqtZ6PPrMtrd9VVumdn987//6eH9sqb/K2VVbpnd9Xv/H8rvLNtHlffXNsnt+jyl79zuJ0AAAAAMQRBwAAAEAccQAAAADEEQcAAABAHHEAAAAAxBEHAAAAQBxxAAAAAMQRBwAAAEAccQAAAADEEQcAAABAHHEAAAAAxClXLq619hoHAAAA8JZSPt/UOx0AAAAAcR6zB/Dcvu8va7Zte6vyTGryd95hxN3bRtxxbmXb+bmYO2vn7942ot+5lW0jvuE7P7+rdHHn9Xznfld569759+g3nt+5s/Yb7+fv/x6tMr/ff35X+WbavK++Obbf+PfGnd9XszgdAAAAAHHEAQAAABBHHAAAAABxxAEAAAAQRxwAAAAAccQBAAAAEEccAAAAAHHEAQAAABBHHAAAAABxxAEAAAAQRxwAAAAAccqVi2utvcYBAAAAvKWUzzf1TgcAAABAnMfsATy37/vLmm3b3qo8k5r8nXcYcfe2EXecW9k2dy5GrJm2Vbr4/no+P7Y7P79p6zmt31Xeunf+PfL8Xq/0/B6Nsy2t31Weyju/n+/8vprbxff/PbnK89ur31mcDgAAAIA44gAAAACIIw4AAACAOOIAAAAAiCMOAAAAgDjiAAAAAIgjDgAAAIA44gAAAACIIw4AAACAOOIAAAAAiCMOAAAAgDjlysW11l7jAAAAAN5SyuebeqcDAAAAIM5j9gCe2/f9Zc22bW9VnklN/s47jLh724g7zq1sGzFrIyp/Y37T+rWejyr1ezTOtlVWqfk9Gmfb3H8bjPi221aZ37R+7/y++o1+ze9R5W/sj35jfmdxOgAAAADiiAMAAAAgjjgAAAAA4ogDAAAAII44AAAAAOKIAwAAACCOOAAAAADiiAMAAAAgjjgAAAAA4ogDAAAAII44AAAAAOKUKxfXWnuNAwAAAHhLKZ9v6p0OAAAAgDiP2QN4bt/3lzXbti1U2bZKF/o9qmxbpQv9HlW2rdKFfo8q21bpQr9HlW2rdKHfo8q2VbrQ71Fl2ypd6Peosm2VLnr1O4vTAQAAABBHHAAAAABxxAEAAAAQRxwAAAAAccQBAAAAEEccAAAAAHHEAQAAABBHHAAAAABxxAEAAAAQRxwAAAAAccQBAAAAEKdcubjW2mscAAAAwFtK+XxT73QAAAAAxBEHAAAAQBxxAAAAAMQRBwAAAEAccQAAAADEEQcAAABAHHEAAAAAxBEHAAAAQBxxAAAAAMQRBwAAAEAccQAAAADEEQcAAABAHHEAAAAAxBEHAAAAQBxxAAAAAMQRBwAAAEAccQAAAADEEQcAAABAHHEAAAAAxLkUB5RSeo0DAAAAOO/iltzpAAAAAIgjDgAAAIA4V+MAfy8AAAAAX3Z9M97hdIBEAAAAAL6myzbcHwsAAABAnD5xgAMCAAAA8AW9NuDdTgdIBAAAAGCojlvvnn8sIBEAAACAQfpuuods4GutIz4WAAAAAo34r+9D/leCjgkAAABAF4O22MP37U4KAAAAwLv8h3YAAAAAAAAAAAAAAAAAAAAAAAAAAAAAAAAAAAAAAAAAAAAAAAAAAAAAAAAAAAAAAAAAAAAAAAAAAAAAAAAAAAAAAAAAAAAAAAAAAAAAAAAA+H//AbO+bDXI6EqcAAAAAElFTkSuQmCCCg==;" vertex="1" parent="1">
          <mxGeometry x="858.47" y="230" width="165.06" height="40" as="geometry" />
        </mxCell>
        <mxCell id="LOQn40MInuUHuY1EKUPV-67" value="" style="shape=image;verticalLabelPosition=bottom;labelBackgroundColor=default;verticalAlign=top;aspect=fixed;imageAspect=0;image=data:image/png,iVBORw0KGgoAAAANSUhEUgAABVoAAAFMCAIAAAC1ZZAlAAAOGElEQVR4nO3cwZKruBIE0NYLR/D/n8tKs+jVi2vJ2IChOs9ZF1hpMDPkqOfnBwAAAAAAAAAAAAAAAAAAAAAAAAAAAAAAAAAAAAAAAAAAAAAAAAAAAAAAAAAAAAAAAAAAAAAAAAAAAAAAAAAAAAAAAAAAAAAAAAAAAAAAAABqaWd/QO/97I8AAACAP6a1c1/Yzzq7FgAAAAD2O6kX+N8ZJ9UFAAAAwCFOesU+uGNQBAAAAMAZjt0mcOTuAF0AAAAAnOTYl+7D6gBdAAAAAJzqwFfvY+oAXQAAAAB8wVEv4Kf8rwQBAACAOzugDrA1AAAAAL7mkNfwvXWALgAAAAC+bP/LuD8WAAAAgDjqAAAAAIizqw7wlwIAAABwiZ2v5HYHAAAAQBx1AAAAAMRRBwAAAEAcdQAAAADEUQcAAABAHHUAAAAAxFEHAAAAQBx1AAAAAMRRBwAAAEAcdQAAAADEUQcAAABAHHUAAAAAxFEHAAAAQBx1AAAAAMRRBwAAAEAcdQAAAADEUQcAAABAnMfVC3huXdeXM8uy/Pz8tNZeTvbeL5+c2563yuTcGdf3b+StMjlXJYXf72hyrkoKeUeTc57P+z/x2m9mrspdKu9ocq5Kir+R94xf+lyVq+afR6PJe7I7AAAAAOKoAwAAACCOOgAAAADiqAMAAAAgjjoAAAAA4qgDAAAAII46AAAAAOKoAwAAACCOOgAAAADiqAMAAAAgjjoAAAAA4rQ9B/fej1oHAAAA8JbWPn+ptzsAAAAA4jyuXsBzWxqO370J67q+nFyW5fLJuSopvp+3yp0wV+WqpeXdfnfNVcmbdn3lHU3OeT5/c23y7p+cq5JC3tHk3LX/bvA38rq+/7rq+l7F7gAAAACIow4AAACAOOoAAAAAiKMOAAAAgDjqAAAAAIijDgAAAIA46gAAAACIow4AAACAOOoAAAAAiKMOAAAAgDjqAAAAAIjT9hzcez9qHQAAAMBbWvv8pd7uAAAAAIjzuHoBz21pOH73Jqzr+nJyWZbLJ+e2n2f7N3PG5FF5q6T4/vWtMjl37f18xqfPVXle3TnvnZ9Xns/71/Y3ns/y/usOd8Kc59XoPFUm5864aml53c+jye/nvYrdAQAAABBHHQAAAABx1AEAAAAQRx0AAAAAcdQBAAAAEEcdAAAAAHHUAQAAABBHHQAAAABx1AEAAAAQRx0AAAAAcdQBAAAAEKftObj3ftQ6AAAAgLe09vlLvd0BAAAAEOdx9QKeW9f15cyyLD/bupDfXQxnTG5f59wZn3jG5PZ1zp3xidd+M3PXru37ea+9amf80ueq3KXfz1vlTpir8qv0fB5Nzl17LdKez55Xo8m059X3f79V7vy5Kinu/Hy+9p65J7sDAAAAII46AAAAAOKoAwAAACCOOgAAAADiqAMAAAAgjjoAAAAA4qgDAAAAII46AAAAAOKoAwAAACCOOgAAAADiqAMAAAAgTttzcO/9qHUAAAAAb2nt85d6uwMAAAAgzuPqBTy3ruvLmWVZLp/c0sRs2UOx/TxVJufO+IavvRPmqtzPR+WtctW+//uVd7S2O9/PZ3zDns+jc975+lb5ZuaqXLW059X3f79VJueq/CrvnPeMyTs/n6+9Z+7J7gAAAACIow4AAACAOOoAAAAAiKMOAAAAgDjqAAAAAIijDgAAAIA46gAAAACIow4AAACAOOoAAAAAiKMOAAAAgDjqAAAAAIjT9hzcez9qHQAAAMBbWvv8pd7uAAAAAIjzuHoBz63r+nJmWZbLJ7c0MVv2UGw/T5VvZu6Mb/jO17fKVTvq+la5n//G73f7p/+NvO7n0eT3n1dV7vy5a9fmfh5Npj2v7nw/3/n5nPb7rXLV7nw/3/n6XsXuAAAAAIijDgAAAIA46gAAAACIow4AAACAOOoAAAAAiKMOAAAAgDjqAAAAAIijDgAAAIA46gAAAACIow4AAACAOOoAAAAAiNP2HNx7P2odAAAAwFta+/yl3u4AAAAAiPO4egHPbWk4fvcmXDu5ruvLyWVZXs5sP09a3mu/mTvnvXZyrsr9vH1yrspdelTeM9bmfv7m5Jzn8+g8af/8/Rt5qzyv7vz7/RvP52uv2vfv57/x+732Wnz/fr6K3QEAAAAQRx0AAAAAcdQBAAAAEEcdAAAAAHHUAQAAABBHHQAAAABx1AEAAAAQRx0AAAAAcdQBAAAAEEcdAAAAAHHUAQAAABCn7Tm4937UOgAAAIC3tPb5S73dAQAAABDncfUCnlvX9eXMsiyFJueqpJB3NDlXJYW8o8m5KinkHU3OVUkh72hyrkoKeUeTc1VSyDuanKuSQt7R5FyVFEflvYrdAQAAABBHHQAAAABx1AEAAAAQRx0AAAAAcdQBAAAAEEcdAAAAAHHUAQAAABBHHQAAAABx1AEAAAAQRx0AAAAAcdQBAAAAEKftObj3ftQ6AAAAgLe09vlLvd0BAAAAEEcdAAAAAHHUAQAAABBHHQAAAABx1AEAAAAQRx0AAAAAcdQBAAAAEEcdAAAAAHHUAQAAABDncfUCnlvX9eXMsiyFJueqpJB3NDlXJYW8o8m5Kim+n7e19nKy937SpLyjdc7JOzpPWt4qk3NVUsg7mpyrkkLe0eRclRRH5b2K3QEAAAAQRx0AAAAAcdQBAAAAEEcdAAAAAHHUAQAAABBHHQAAAABx1AEAAAAQRx0AAAAAcdQBAAAAEEcdAAAAAHHUAQAAABCn7Tm4937UOgAAAIC3tPb5S73dAQAAABDncfUCnlvX9eXMsiyFJueqpJB3NDlXJYW8o8m5KimOyrulgf7dO3Ztiu3rnJN3dB55R2u7c94qTyHP59HkXJUU8o4m56qkkHc0eU92BwAAAEAcdQAAAADEUQcAAABAHHUAAAAAxFEHAAAAQBx1AAAAAMRRBwAAAEAcdQAAAADEUQcAAABAHHUAAAAAxFEHAAAAQJy25+De+1HrAAAAAN7S2ucv9XYHAAAAQJzH1Qt4bl3XlzPLshSanKuSQt7R5FyVFPKOJueqpDgq75YG+nfv2Blr2/7p2yfn5B2dR95/3T9vlaeQ5/Nocq5KCnlHk3NVUsg7mrwnuwMAAAAgjjoAAAAA4qgDAAAAII46AAAAAOKoAwAAACCOOgAAAADiqAMAAAAgjjoAAAAA4qgDAAAAII46AAAAAOKoAwAAACBO23Nw7/2odQAAAABvae3zl3q7AwAAACDO4+oFPLeu68uZZVkKTc5VSSHvaHKuSgp5R5NzVVIclXdLA/27d2z7J157zjl5v7k2efefc67KU8jzeTQ5VyWFvKPJuSop5B1N3pPdAQAAABBHHQAAAABx1AEAAAAQRx0AAAAAcdQBAAAAEEcdAAAAAHHUAQAAABBHHQAAAABx1AEAAAAQRx0AAAAAcdQBAAAAEKftObj3ftQ6AAAAgLe09vlLvd0BAAAAEOdx9QKeW9f15cyyLIUm56qkkHc0OVclhbyjybkqKY7Ku6WB/t07tn3yjBTbP31O3tF55B1N3jlvlaeQ5/Nocq5KCnlHk3NVUsg7mrwnuwMAAAAgjjoAAAAA4qgDAAAAII46AAAAAOKoAwAAACCOOgAAAADiqAMAAAAgjjoAAAAA4qgDAAAAII46AAAAAOKoAwAAACBO23Nw7/2odQAAAABvae3zl3q7AwAAACDO4+oFPLeu68uZZVkKTc5VSSHvaHKuSgp5R5NzVVIclXdLA/27d+zaFNvXOSfv6DzyjtZ257xVnkKez6PJuSop5B1NzlVJIe9o8p7sDgAAAIA46gAAAACIow4AAACAOOoAAAAAiKMOAAAAgDjqAAAAAIijDgAAAIA46gAAAACIow4AAACAOOoAAAAAiKMOAAAAgDhtz8G996PWAQAAALyltc9f6u0OAAAAgDiPqxfw3LquL2eWZSk0OVclhbyjybkqKeQdTc5VSfH9vFu66t9dZmdMyjta55y8o/Ok5a0yOVclhbyjybkqKeQdTc5VSXFU3qvYHQAAAABx1AEAAAAQRx0AAAAAcdQBAAAAEEcdAAAAAHHUAQAAABBHHQAAAABx1AEAAAAQRx0AAAAAcdQBAAAAEEcdAAAAAHHanoN770etAwAAAHhLa5+/1NsdAAAAAHEeVy/guXVdX84sy1Jocq5KCnlHk3NVUsg7mpyrkuKovFsa6N+9Y1Um56pcNffzaHKuSgp5R5NzVVLIO5qcq5JC3tHkXJUUR+W9it0BAAAAEEcdAAAAAHHUAQAAABBHHQAAAABx1AEAAAAQRx0AAAAAcdQBAAAAEEcdAAAAAHHUAQAAABBHHQAAAABx1AEAAAAQp+05uPd+1DoAAACAt7T2+Uu93QEAAAAQRx0AAAAAcdQBAAAAEEcdAAAAAHHUAQAAABBHHQAAAABx1AEAAAAQRx0AAAAAcdQBAAAAEEcdAAAAAHHUAQAAABBHHQAAAABx1AEAAAAQRx0AAAAAcdQBAAAAEEcdAAAAAHHUAQAAABBHHQAAAABx1AEAAAAQZ1cd0Fo7ah0AAADAdjtfye0OAAAAgDjqAAAAAIiztw7w9wIAAADwZftfxg/YHaARAAAAgK855DXcHwsAAABAnGPqABsEAAAA4AuOegE/bHeARgAAAABOdeCr95F/LKARAAAAgJMc+9J9ygt87/2M0wIAAECgM/7r+yn/K0HbBAAAAOAQJ71in/7ebqcAAAAAvMt/aAcAAAAAAAAAAAAAAAAAAAAAAAAAAAAAAAAAAAAAAAAAAAAAAAAAAAAAAAAAAAAAAAAAAAAAAAAAAAAAAAAAAAAAAAAAAAAAAAAAAAAAAACA//cfRDpsNVR4LbYAAAAASUVORK5CYIIK;" vertex="1" parent="1">
          <mxGeometry x="618.47" y="610" width="165.06" height="40" as="geometry" />
        </mxCell>
        <mxCell id="LOQn40MInuUHuY1EKUPV-68" value="" style="shape=image;verticalLabelPosition=bottom;labelBackgroundColor=default;verticalAlign=top;aspect=fixed;imageAspect=0;image=data:image/png,iVBORw0KGgoAAAANSUhEUgAABVoAAAFMCAIAAAC1ZZAlAAAOg0lEQVR4nO3cwbKrqhYF0MOrVPn/n2uL20jrVUViIgTZc4z2Ulkb1Dgv5/77BwAAAAAAAAAAAAAAAAAAAAAAAAAAAAAAAAAAAAAAAAAAAAAAAAAAAAAAAAAAAAAAAAAAAAAAAAAAAAAAAAAAAAAAAAAAAAAAAAAAAAAAAABrKaMvUGsdfQkAAAD4Y0oZ+8E+6uxSAAAAALhuUC7wvxEnlQUAAABAF4M+sTtnDIIAAAAAGKHvNoGeuwNkAQAAADBI34/ubnGALAAAAACG6vjp3ScOkAUAAADAD/T6AB/yvxIEAAAA7qxDHGBrAAAAAPxMl8/wq3GALAAAAAB+7PrHuH8sAAAAAHHEAQAAABDnUhzgXwoAAADAFBc/ye0OAAAAgDjiAAAAAIgjDgAAAIA44gAAAACIIw4AAACAOOIAAAAAiCMOAAAAgDjiAAAAAIgjDgAAAIA44gAAAACIIw4AAACAOOIAAAAAiCMOAAAAgDjiAAAAAIgjDgAAAIA44gAAAACIIw4AAACAOI/ZA3ht3/e3Ndu2/fv3r5TytrLWOqjy/Djbzp9nlco283t0nhGVaf1az0eV+j0aZ9sqq1S/R5Vtq6zn85Vtc98dd57fVSrbzO8vx6bf65Vtq3TRq99Z7A4AAACAOOIAAAAAiCMOAAAAgDjiAAAAAIgjDgAAAIA44gAAAACIIw4AAACAOOIAAAAAiCMOAAAAgDjiAAAAAIgjDgAAAIA45crBtdZe4wAAAAA+Usr3H/V2BwAAAECcx+wBvHYm4XjuTdj3/W3ltm2DKs+Ps21uFyMq28zvL8c24q/dtkoX1vPRONvS+l3lqfv7+3eVyrZV1vOdn89/o99VKtvM7y/Hpt/rlW2rdNGr31nsDgAAAIA44gAAAACIIw4AAACAOOIAAAAAiCMOAAAAgDjiAAAAAIgjDgAAAIA44gAAAACIIw4AAACAOOIAAAAAiCMOAAAAgDjlysG11l7jAAAAAD5Syvcf9XYHAAAAQJzH7AG8dibheO5N2Pf9beW2bdMr21bpole/c+f3/NXPV7aNGNvcc7bNnQvr+ejqvdZzWr+rPHW9j44q29J+b4y4g+78fJ77bPn9+3eVLtLu3zv/nrzzel7lqdur31nsDgAAAIA44gAAAACIIw4AAACAOOIAAAAAiCMOAAAAgDjiAAAAAIgjDgAAAIA44gAAAACIIw4AAACAOOIAAAAAiCMOAAAAgDjlysG11l7jAAAAAD5Syvcf9XYHAAAAQJzH7AG8dibheO5N2Pf9beW2bdMr21bpole/I+Z37jnb5q7nEVdvW2WVWs9H52xL63eVVer+PapsG7GiRlTeud+/Mb9zK3//vPob87tKF3d+/955flfpole/s9gdAAAAAHHEAQAAABBHHAAAAABxxAEAAAAQRxwAAAAAccQBAAAAEEccAAAAAHHEAQAAABBHHAAAAABxxAEAAAAQRxwAAAAAccqVg2utvcYBAAAAfKSU7z/q7Q4AAACAOI/ZA3jtTMLx3Juw7/vbym3bple2rdJFr37Pz+/clXD+6m0j+p1b2TbiLzx3JbSt0sWd1/Od+13lqet9dFTZtkoXd34+/4359f49uuKd53eVLu48v3Pf6W2rPJ979TuL3QEAAAAQRxwAAAAAccQBAAAAEEccAAAAAHHEAQAAABBHHAAAAABxxAEAAAAQRxwAAAAAccQBAAAAEEccAAAAAHHEAQAAABCnXDm41tprHAAAAMBHSvn+o97uAAAAAIjzmD2A184kHM+9Cfu+v63ctm1Q5flxts3tYkRlm/m9PrYRXfSa3xFjm7tm2tLWc1q/qzx1f3//rlLZtkoXv1/Pc+90z6ujcbaZ36PzzO0i7X2U1m+v99EsdgcAAABAHHEAAAAAxBEHAAAAQBxxAAAAAMQRBwAAAEAccQAAAADEEQcAAABAHHEAAAAAxBEHAAAAQBxxAAAAAMQRBwAAAECccuXgWmuvcQAAAAAfKeX7j3q7AwAAACDOY/YAXtv3/W3Ntm3/zmUhz10MIyrPj7Pt/HlWqWwzv0fnGVGZ1q/1fFSp36Nxtq2ySvV7VNk2d5X+jfX8N/pdZSW0md+j88ztotf8rrJK7/y8uvP7aBa7AwAAACCOOAAAAADiiAMAAAAgjjgAAAAA4ogDAAAAII44AAAAAOKIAwAAACCOOAAAAADiiAMAAAAgjjgAAAAA4ogDAAAAIE65cnCttdc4AAAAgI+U8v1Hvd0BAAAAEOcxewCv7fv+tmbbtoUq21bpQr9HlW2rdKHfo8q2VbrQ71Fl2ypd6Peosm2VLvR7VNm2Shf6PapsW6UL/R5Vtq3SRa9+Z7E7AAAAAOKIAwAAACCOOAAAAADiiAMAAAAgjjgAAAAA4ogDAAAAII44AAAAAOKIAwAAACCOOAAAAADiiAMAAAAgjjgAAAAA4pQrB9dae40DAAAA+Egp33/U2x0AAAAAccQBAAAAEEccAAAAAHHEAQAAABBHHAAAAABxxAEAAAAQRxwAAAAAccQBAAAAEEccAAAAAHEeswfwWinlbU2tdaHKtn3f39Zs27ZQZdv588ydtd/3O6IyrV/r+ahSv0fjbFtller3qLLNej46zyqVbXPflXfud5W/TNsqq1S/R5Vtq3TRq99Z7A4AAACAOOIAAAAAiCMOAAAAgDjiAAAAAIgjDgAAAIA44gAAAACIIw4AAACAOOIAAAAAiCMOAAAAgDjiAAAAAIgjDgAAAIA45crBtdZe4wAAAAA+Usr3H/V2BwAAAECcx+wBvLbv+9uabds+qjyTmjz3O4y4etuIK86tbJs7FyPWTNvcsY34a7et0oX1fDTOtrR+V3nqeh8dVbZZz9fHduf5XeVXovv3qLJtlS70e1TZtkoXvfqdxe4AAAAAiCMOAAAAgDjiAAAAAIgjDgAAAIA44gAAAACIIw4AAACAOOIAAAAAiCMOAAAAgDjiAAAAAIgjDgAAAIA44gAAAACIU64cXGvtNQ4AAADgI6V8/1FvdwAAAADEecwewGv7vr+t2bbto8ozqclzv8OIq7eNuOLcyra5c3H+6ucr2+au0hHnbJs7F9bz0dV7ree0fld56nofHVW2zV3PI1Z+29x77ffvo1W68P49qmxz/16/4p3v31XeMr36ncXuAAAAAIgjDgAAAIA44gAAAACIIw4AAACAOOIAAAAAiCMOAAAAgDjiAAAAAIgjDgAAAIA44gAAAACIIw4AAACAOOIAAAAAiFOuHFxr7TUOAAAA4COlfP9Rb3cAAAAAxHnMHsBr+76/rdm27aPKM6nJc7/DiKu3jbji3Mq2EXMx95xtc9feiKu3rbJKreejc7al9bvKKnX/HlW2zX0+/437987zu8qvxDvfv3f+/bzKrKXdv96/R5X3ZHcAAAAAxBEHAAAAQBxxAAAAAMQRBwAAAEAccQAAAADEEQcAAABAHHEAAAAAxBEHAAAAQBxxAAAAAMQRBwAAAEAccQAAAADEKVcOrrX2GgcAAADwkVK+/6i3OwAAAADiPGYP4LV939/WbNv2UeWZ1OS532HE1dtGXHFuZdv5uZg7a+ev3jai37mVbSP+wne+f1fp4s7r+c79rvLU9T46qmxb5an7+/v3b8zvKr8S73z//o3379xZu/P7987Pq1WeQr3W8yx2BwAAAEAccQAAAADEEQcAAABAHHEAAAAAxBEHAAAAQBxxAAAAAMQRBwAAAEAccQAAAADEEQcAAABAHHEAAAAAxBEHAAAAQJxy5eBaa69xAAAAAB8p5fuPersDAAAAIM5j9gBe2/f9bc22bR9VnklNnvsdRly9bcQV51a2zZ2LEWumbZUufr+ez4/tzvdv2npO63eVp6730VFlW9p6Tut3lV+Jd35e3fn9O7eL3/++WuX+9T46qrwnuwMAAAAgjjgAAAAA4ogDAAAAII44AAAAAOKIAwAAACCOOAAAAADiiAMAAAAgjjgAAAAA4ogDAAAAII44AAAAAOKIAwAAACBOuXJwrbXXOAAAAICPlPL9R73dAQAAABDnMXsAr+37/rZm27aPKs+kJs/9DiOu3jbiinMr20bM2ojKvzG/af1az0eV+j0aZ9sqq1S/R5Vtc38bjLib2ty/R+eZ+5fxfD4aZ9sqv5rM79E421Z5y/Tqdxa7AwAAACCOOAAAAADiiAMAAAAgjjgAAAAA4ogDAAAAII44AAAAAOKIAwAAACCOOAAAAADiiAMAAAAgjjgAAAAA4ogDAAAAIE65cnCttdc4AAAAgI+U8v1Hvd0BAAAAEOcxewCv7fv+tmbbtoUq21bpQr9HlW2rdKHfo8q2VbrQ71Fl2ypd6Peosm2VLvR7VNm2Shf6PapsW6UL/R5Vtq3SRa9+Z7E7AAAAAOKIAwAAACCOOAAAAADiiAMAAAAgjjgAAAAA4ogDAAAAII44AAAAAOKIAwAAACCOOAAAAADiiAMAAAAgjjgAAAAA4pQrB9dae40DAAAA+Egp33/U2x0AAAAAccQBAAAAEEccAAAAAHHEAQAAABBHHAAAAABxxAEAAAAQRxwAAAAAccQBAAAAEEccAAAAAHHEAQAAABBHHAAAAABxxAEAAAAQRxwAAAAAccQBAAAAEEccAAAAAHHEAQAAABBHHAAAAABxxAEAAAAQRxwAAAAAcS7FAaWUXuMAAAAAzrv4SW53AAAAAMQRBwAAAECcq3GAfy8AAAAAP3b9Y7zD7gCJAAAAAPxMl89w/1gAAAAA4vSJA2wQAAAAgB/o9QHebXeARAAAAACG6vjp3fMfC0gEAAAAYJC+H91DPuBrrSNOCwAAAIFG/Nf3If8rQdsEAAAAoItBn9jDv9vtFAAAAIBP+Q/tAAAAAAAAAAAAAAAAAAAAAAAAAAAAAAAAAAAAAAAAAAAAAAAAAAAAAAAAAAAAAAAAAAAAAAAAAAAAAAAAAAAAAAAAAAAAAAAAAAAAAAAAAPD//gMcbWw1/5qUnwAAAABJRU5ErkJgggo=;" vertex="1" parent="1">
          <mxGeometry x="1098.47" y="230" width="165.06" height="40" as="geometry" />
        </mxCell>
        <mxCell id="LOQn40MInuUHuY1EKUPV-69" style="edgeStyle=orthogonalEdgeStyle;rounded=0;orthogonalLoop=1;jettySize=auto;html=1;exitX=1;exitY=0;exitDx=0;exitDy=0;entryX=0.5;entryY=0;entryDx=0;entryDy=0;curved=1;" edge="1" parent="1" source="LOQn40MInuUHuY1EKUPV-22" target="LOQn40MInuUHuY1EKUPV-22">
          <mxGeometry relative="1" as="geometry">
            <Array as="points">
              <mxPoint x="1223" y="300" />
              <mxPoint x="1181" y="300" />
            </Array>
          </mxGeometry>
        </mxCell>
        <mxCell id="LOQn40MInuUHuY1EKUPV-70" value="elapsed_active_time &amp;lt; active_time_duration" style="edgeLabel;html=1;align=center;verticalAlign=middle;resizable=0;points=[];" vertex="1" connectable="0" parent="LOQn40MInuUHuY1EKUPV-69">
          <mxGeometry x="0.235" y="1" relative="1" as="geometry">
            <mxPoint x="-16" y="-11" as="offset" />
          </mxGeometry>
        </mxCell>
      </root>
    </mxGraphModel>
  </diagram>
</mxfile>
